<?xml version="1.0" encoding="UTF-8"?>
<svg id="Capa_1" xmlns="http://www.w3.org/2000/svg" version="1.1" viewBox="0 0 200 200">
  <!-- Generator: Adobe Illustrator 29.2.1, SVG Export Plug-In . SVG Version: 2.1.0 Build 116)  -->
  <defs>
    <style>
      .st0 {
        fill: #06048b;
      }
    </style>
  </defs>
  <path class="st0" d="M26.7,43.41s.07,0,.11-.02c1.93-.7,4.31-1.25,7.73-1.77.14-.03.25-.14.26-.28.05-.8.1-1.58.14-2.35.04-.71.09-1.41.13-2.13,0-.09-.02-.17-.08-.23-.06-.06-.14-.1-.22-.1h-1.17c-.16,0-.29.12-.31.27-.07.63-.15,1.27-.24,1.89-.3.03-.64.07-.99.13-.03-.14-.05-.29-.08-.44-.08-.47-.16-.95-.22-1.4-.02-.16-.15-.27-.3-.27-.3,0-.54.05-.81.11-.1.02-.21.05-.33.07-.16.03-.27.18-.24.34.07.55.15,1.21.24,1.97-.14.03-.27.07-.41.11-.17.05-.35.1-.52.13-.24-.5-.53-1.24-.68-1.78-.04-.14-.16-.23-.29-.23-.25,0-.51.1-.74.19-.09.04-.17.07-.25.09-.14.04-.23.19-.21.33.07.52.16.93.28,1.4.04.18.09.37.13.59-.16.05-.32.11-.48.16-.16.06-.3.12-.44.16-.14-.27-.3-.59-.46-.89-.15-.28-.29-.56-.41-.77-.05-.11-.16-.17-.27-.17-.32,0-.65.17-.88.28l-.06.03c-.14.07-.21.22-.16.37.35,1.2,1,2.54,2.01,4.12.06.09.16.14.26.14Z"/>
  <path class="st0" d="M168.35,41.33c0,.15.12.26.26.28,3.42.53,5.81,1.07,7.74,1.77.04.02.07.02.11.02.1,0,.2-.05.26-.14,1-1.58,1.66-2.92,2.01-4.12.04-.15-.03-.3-.17-.37l-.06-.03c-.22-.11-.56-.28-.87-.28-.12,0-.22.07-.28.17-.11.22-.25.49-.4.77-.16.31-.33.62-.46.89-.14-.04-.29-.09-.45-.16-.16-.05-.32-.11-.48-.16.04-.21.09-.4.14-.59.11-.46.21-.87.28-1.4.02-.14-.07-.29-.22-.33-.08-.02-.16-.05-.25-.09-.23-.08-.49-.19-.74-.19-.14,0-.26.09-.3.23-.15.55-.44,1.29-.68,1.78-.17-.04-.34-.08-.52-.13-.13-.04-.28-.07-.41-.11.09-.76.17-1.41.24-1.97.02-.16-.09-.31-.25-.34-.12-.02-.23-.05-.33-.07-.28-.06-.51-.11-.81-.11-.15,0-.28.12-.3.27-.06.44-.14.93-.23,1.4-.03.15-.06.3-.08.44-.36-.06-.7-.1-1.01-.13-.08-.62-.16-1.26-.23-1.89-.02-.15-.15-.27-.3-.27h-1.17c-.08,0-.16.03-.23.1-.06.06-.08.14-.08.23.04.72.09,1.42.13,2.13.05.77.1,1.55.14,2.35Z"/>
  <path class="st0" d="M5.73,125.67c10.2.17,20.04,2.38,29.28,6.56l-3.47,3.76,1.95,1.78c18.23,16.57,41.85,25.71,66.5,25.71s48.28-9.13,66.51-25.71l1.95-1.78-3.46-3.76c9.23-4.18,19.07-6.4,29.27-6.56l5.3-.08-9.56-12.09,9.5-12.83-5.28.06c-4.63.06-9.23.45-13.77,1.15.84-1.26,5.17-6.14,5.69-6.5.06-.02.11-.06.15-.11.06-.08.07-.18.05-.26-.08-.28-.14-.61-.21-.93-.04-.2-.07-.4-.12-.58.03,0,.05,0,.08,0,.17.02.35.04.5.08.12.03.25-.01.33-.12.07-.1.08-.24.01-.34-.82-1.29-.76-1.72-.68-1.85.09-.16.36-.18.57-.18.19,0,.43.02.69.07.11.02.21-.01.28-.09.08-.08.1-.19.08-.29-.37-1.33-.27-2.36-.15-3.66.07-.75.16-1.6.16-2.62,0-.1-.04-.19-.12-.24-.07-.06-.17-.08-.27-.05-.92.28-1.69.41-2.36.41-2.25,0-2.75-1.7-3.38-3.86-.45-1.54-.95-3.25-2.18-4.64,3.04.43,5.67-.48,7.48-2.57,1.81-2.08,2.57-5.13,2.1-8.36,0-.02-.01-.04-.02-.05-.27-.85-1.23-2.28-2.45-4.09-2.39-3.56-5.67-8.43-4.52-10.58.4-.74,1.35-1.13,2.85-1.16.51.76.58,1.56.65,2.4.08.89.16,1.82.77,2.75.05.08.14.13.23.14.09,0,.19-.02.25-.09.38-.39.29-.94.21-1.48-.12-.76-.16-1.28.43-1.61.15.3.5.58,1.33.58.76,0,1.75-.23,2.54-.41.47-.11.91-.21,1.1-.21.15,0,.28-.11.3-.26.1-.65,0-1.16-.29-1.5-.29-.36-.77-.53-1.46-.53-.55,0-1.14.11-1.61.21h-.07c-.05-.06-.06-.12-.06-.17-.01-.39.65-1,1.23-1.54.61-.56,1.17-1.08,1.35-1.61.03-.09,0-.2-.04-.28-.06-.08-.15-.13-.25-.13-2.21,0-2.73-.17-4.15-.64-.58-.19-1.29-.42-2.31-.7-.04-.01-.1-.01-.14,0-2.87.59-4.61,1.69-5.32,3.37-1.36,3.2,1.52,7.76,3.83,11.43.94,1.49,1.83,2.89,2.3,3.99,1.07,2.5.89,5.12-.48,7.21-1.13,1.72-2.94,2.78-4.73,2.78-2.16,0-4.01-1.46-5.22-4.1-.97-2.11-2.08-4.18-3.31-6.16.29-.35.84-1.14,2.06-2.93.64-.94,2.16-3.18,2.32-3.54,1.18-2.9,2.25-9.5.16-12.36-.03-.06-.1-.1-.16-.12-2.74-.78-6.37-1.66-10.18-1.66-.81,0-1.61.04-2.4.11-.14.01-.26.13-.28.27-.2,1.61-.04,2.59.48,3.19.56.62,1.45.71,2.34.71.34,0,.71-.01,1.1-.03.37-.02.75-.03,1.15-.04.07.5.08.91.04,1.25-.79-.25-1.68-.37-2.79-.37-.75,0-1.53.06-2.29.11-.75.05-1.52.1-2.26.1-.3,0-.59,0-.85-.03-.06,0-.12.03-.15.08-.03.05-.02.11.01.16.67.94,1.35,1.24,2.39,1.67.02,0,.03,0,.05.01h0s.03,0,.04,0h0c1.98-.73,3.77-1.17,5.78-1.43-.25,1.08-1.13,1.31-2.03,1.54-1.01.25-2.25.57-1.94,2.39.02.11.1.2.21.24.14.04.3.07.48.07.44,0,.9-.14,1.34-.27.4-.12.78-.23,1.09-.23.21,0,.6,0,.7.87-1.31.71-2.44.77-3.49.77h-.72c-1.6,0-3.05.17-4.6,2.26-.65-.92-1.51-1.86-2.42-2.86-1.37-1.51-2.8-3.08-3.45-4.56-.68-1.54-.31-1.91.19-2.43.42-.43.95-.97.88-2.19,0-.1-.08-.2-.16-.25-.88-.48-.93-.48-2.3-.48-.15,0-.28.12-.3.27-.08.73.02,1.12.07,1.37.07.25.08.29-.8.99-1.09-.51-1.21-1.07-1.33-1.66-.2-.98-.52-1.7-2.81-1.97-.09,0-.19.02-.24.09-.07.07-.1.16-.09.26.17,1.29.62,2.17,1.05,3.02.33.64.63,1.25.83,2.02-.41-.06-.79-.1-1.13-.1-1.98,0-2.43,1.09-2.45,2.03,0,.02-.01.05-.01.07,0,.17.14.31.31.31h0s.06,0,.09-.01c.21-.08.42-.11.66-.11,1.45,0,3.31,1.29,4.44,3.06.89,1.37,1.11,2.77.64,3.83-.04.05-.06.12-.06.18,0,.17.14.3.31.3h0s.06,0,.1,0c.5-.17.89-.25,1.16-.25.58,0,.66.33.74,1.74,0,.18.02.37.03.56,0,.13.09.24.21.27.12.04.25,0,.33-.09.46-.55.51-.61,1.08-.61.62.7.69,1.65.2,2.83-1.1,2.66-4.73,5.59-6.7,5.93.08-.75-.02-1.29-.32-1.66-.45-.54-1.27-.64-2.46-.26-.11.04-.19.12-.21.22-.02.11.02.22.09.29.59.56.47.84.32,1.22-.26.64-.34,1.22,1.05,2.02-.07.2-.1.43-.1.61-.21.18-.52.26-.85.34-.86.22-1.93.5-1.76,2.78,0,.12.09.24.21.27.07.02.15.01.21-.01.34-.12,3.56-1.08,4.6-1.33.14,1.18.93,1.61,1.61,1.61s1.35-.41,1.64-1.03c.16-.36.33-1.07-.32-1.95.48-.28,2.48-.5,3.72-.5.07,0,.11,0,.14,0,.12.03.22,0,.3-.1.07-.08.08-.21.04-.32-.46-1.11.51-1.71,2.16-2.58.36-.18.73-.37,1.07-.58,2.51,3.05,4.9,4.37,7.65,5.89,1.46.81,2.98,1.65,4.71,2.85,3.3,2.27,2.88,6.43,2.47,10.45-.19,1.89-.37,3.67-.19,5.27,0,.12.1.24.23.27.12.03.25-.02.32-.12.9-1.28,1.84-1.95,2.73-1.95,1.06,0,1.75.93,2.07,1.48.74,1.28,1.07,3.32.25,4.73-.57.98-1.57,1.44-2.97,1.36-.55-.83-1.38-1.37-2.09-1.37-.49,0-1.37.25-1.69,1.9-.01.04-.02.08-.02.12,0,.17.14.31.31.31h0s.02,0,.04,0c.73-.09,1.2,0,1.37.28.13.21.23.77-.49,2.18-.04.05-.07.12-.07.19,0,.17.15.32.31.3.04,0,.08,0,.13-.02,2.41-1.02,4.02-.51,4.88,1.63.01.01.01.02.02.04-14.17,2.27-27.71,7.61-39.62,15.64V40.57H62.63v79.04c-16.47-11.97-36.36-18.62-56.85-18.88l-5.28-.06,9.51,12.83L.44,125.59l5.29.08ZM162.83,49.03s-.04-.02-.05-.03c.07-.04.19-.07.32-.09-.07.04-.16.07-.28.11ZM168.97,43.89c-.37,0-.74-.23-.89-.85.28.03.57.05.87.07.22.01.45.03.69.05.06.04.12.07.19.1-.16.41-.52.63-.87.63ZM100,160.86c-24.02,0-46.99-8.89-64.74-25.03l3.21-3.49.43-.47.11-.12.32-.36.1-.1,9.17-9.97c5.05,4.58,10.63,8.41,16.58,11.46.19.1.37.2.57.29.19.1.38.19.58.28,10.38,5.09,21.86,7.79,33.67,7.79s23.29-2.7,33.68-7.79c.19-.09.39-.19.57-.28.19-.09.38-.19.57-.29,5.96-3.05,11.54-6.88,16.58-11.46l9.18,9.97.09.1.33.36.11.12.43.47,3.22,3.49c-17.75,16.14-40.72,25.03-64.75,25.03ZM51.42,122.17l17.64,6.43-3.01,3.27c-5.2-2.63-10.1-5.87-14.63-9.69ZM130.94,128.6l17.63-6.43c-4.51,3.82-9.42,7.06-14.62,9.69l-3.01-3.27ZM194.26,103.34l-7.27,9.82c-.16.23-.16.53.01.75l7.22,9.13c-11.36.19-22.4,2.87-32.41,7.78l-.29-.32-9.63-10.46s-.08-.07-.13-.1c-.01,0-.02-.02-.03-.02-.05-.03-.09-.05-.15-.06,0,0,0,0,0,0-.03,0-.08-.01-.12-.01h-.03s-.04,0-.05,0c-.04,0-.08.01-.12.02,0,0-.02,0-.04,0l-18.54,6.76c17.16-14.79,38.86-23.02,61.57-23.31ZM65.4,43.34h72.07v76.19c-2.23,1.61-4.4,3.32-6.49,5.13l-4.02,3.46,3.54,3.84c-9.52,4.31-20.03,6.58-30.5,6.58s-20.97-2.27-30.49-6.58l3.54-3.84-4.02-3.46c-1.18-1.02-2.4-2.01-3.62-2.97V43.34ZM13,113.92c.17-.22.18-.52.02-.75l-7.28-9.82c22.71.29,44.42,8.52,61.57,23.31l-18.53-6.76s-.02,0-.03,0c-.04,0-.08-.02-.12-.02-.02,0-.04,0-.05,0h-.04s-.08,0-.11.01t0,0s-.09.03-.14.06c-.01,0-.03,0-.04.02-.04.03-.08.06-.12.1l-9.63,10.46-.29.32c-10.02-4.91-21.05-7.59-32.41-7.78l7.22-9.13Z"/>
  <path class="st0" d="M82.79,125h9.44c4.77,0,8.65,3.88,8.65,8.64,0,.68.55,1.23,1.24,1.23s1.23-.55,1.23-1.23c0-4.76,3.88-8.64,8.65-8.64h9.97c5.09,0,9.23-4.14,9.23-9.24v-63.34c0-.69-.55-1.24-1.22-1.24h-55.17c-.69,0-1.24.55-1.24,1.24v63.34c0,5.09,4.14,9.24,9.23,9.24ZM76.02,53.66h52.71v37.42h-4.91c.02-.21-.04-.43-.16-.62l-2.41-3.44c-.05-.08-.11-.14-.18-.2l-2.68-2.15-1.67-3.35c-.06-.11-.14-.21-.24-.29l-2.46-2.06-2.46-2.82-2.36-2.93c-.07-.09-.16-.16-.26-.22l-4.87-2.78c-.12-.08-.27-.12-.41-.12l-4.3-.23c-.14,0-.28.02-.4.07l-5.06,2.11c-.18.08-.33.21-.43.37l-4.86,8.08-5.04,4.83s-.09.11-.13.16l-3.27,5.1c-.1.16-.14.32-.14.5h-3.99v-37.42ZM92.9,78.08c-.17-.17-.45-.17-.62,0l-.17.17,2.78-4.62,4.58-1.92,3.86.21,4.54,2.59,2.26,2.81s.01.02.02.03l2.52,2.89s.08.07.11.1l2.37,1.98,1.68,3.36c.06.12.15.23.25.31l2.74,2.19,2.04,2.9h-39.82l2.89-4.5,5.04-4.84c.06-.05.11-.12.15-.19l.35-.57c.1,0,.2-.04.28-.12l2.16-2.16c.17-.17.17-.44,0-.62ZM76.02,100.96c1.89-.15,2.94-.67,4.29-1.34,1.89-.93,4.22-2.1,8.53-2.1s6.65,1.17,8.53,2.1c1.63.81,2.8,1.39,5.51,1.39s3.89-.58,5.52-1.39c1.88-.93,4.22-2.1,8.53-2.1s6.65,1.17,8.53,2.1c1.09.54,1.98.98,3.27,1.21v6.83c-2.93-.32-4.76-1.22-6.28-1.98-1.62-.81-2.8-1.39-5.51-1.39s-3.89.58-5.52,1.39c-1.88.94-4.22,2.1-8.53,2.1s-6.64-1.16-8.53-2.1c-1.63-.81-2.79-1.39-5.51-1.39s-3.89.58-5.52,1.39c-1.69.84-3.76,1.87-7.3,2.06v-6.79ZM76.02,113.57c1.89-.16,2.94-.67,4.29-1.34,1.89-.93,4.22-2.09,8.53-2.09s6.65,1.16,8.53,2.09c1.63.81,2.8,1.39,5.51,1.39s3.89-.58,5.52-1.39c1.88-.93,4.22-2.09,8.53-2.09s6.65,1.16,8.53,2.09c1.09.55,1.98.98,3.27,1.21v2.32c0,1.61-.58,3.11-1.53,4.27-2.07-.42-3.52-1.13-4.76-1.74-1.62-.81-2.8-1.39-5.51-1.39s-3.89.58-5.52,1.39c-1.88.93-4.22,2.1-8.53,2.1s-6.64-1.16-8.53-2.1c-1.63-.81-2.79-1.39-5.51-1.39s-3.89.58-5.52,1.39c-1.4.7-3.09,1.53-5.65,1.9-1.03-1.19-1.66-2.74-1.66-4.43v-2.19Z"/>
  <path class="st0" d="M92.54,79.52l-1.79,1.78c-.17.17-.17.45,0,.62.09.08.2.13.32.13.11,0,.22-.04.3-.13l1.79-1.79c.17-.17.17-.45,0-.62-.17-.17-.44-.17-.62,0Z"/>
  <path class="st0" d="M92.54,81.04l-1.02,1.02c-.17.17-.17.45,0,.62.08.08.2.13.31.13s.22-.04.31-.13l1.02-1.02c.17-.17.17-.45,0-.62-.17-.17-.44-.17-.62,0Z"/>
  <path class="st0" d="M99.31,87.13c.11,0,.22-.04.31-.13l2.15-2.15c.17-.17.17-.44,0-.62-.17-.17-.44-.17-.62,0l-2.16,2.15c-.17.17-.17.45,0,.62.09.08.21.13.32.13Z"/>
  <path class="st0" d="M101.42,85.67l-1.79,1.78c-.17.17-.17.45,0,.62.09.09.2.13.31.13s.22-.04.31-.13l1.78-1.78c.17-.17.17-.45,0-.62-.17-.17-.45-.17-.62,0Z"/>
  <path class="st0" d="M101.42,87.19l-1.03,1.02c-.16.17-.16.45,0,.62.09.08.21.12.32.12.11,0,.22-.04.3-.12l1.03-1.03c.17-.17.17-.45,0-.62-.17-.17-.45-.17-.62,0Z"/>
  <path class="st0" d="M106.42,81.53c.12,0,.23-.05.31-.13l2.15-2.15c.17-.17.17-.44,0-.62-.17-.17-.45-.17-.62,0l-2.15,2.16c-.17.17-.17.44,0,.61.09.08.2.13.31.13Z"/>
  <path class="st0" d="M108.53,80.06l-1.78,1.79c-.18.17-.18.45,0,.62.08.08.19.12.31.12.11,0,.22-.04.31-.12l1.78-1.79c.17-.17.17-.45,0-.62-.17-.17-.45-.17-.62,0Z"/>
  <path class="st0" d="M108.53,81.59l-1.02,1.02c-.17.17-.17.45,0,.62.08.09.2.13.31.13s.23-.04.31-.13l1.02-1.02c.17-.17.17-.44,0-.62-.17-.17-.45-.17-.62,0Z"/>
  <path class="st0" d="M113.34,88.64c.12,0,.22-.04.31-.12l2.15-2.16c.17-.17.17-.44,0-.61-.17-.17-.44-.17-.62,0l-2.15,2.15c-.17.17-.17.45,0,.62.08.08.2.12.31.12Z"/>
  <path class="st0" d="M115.45,87.18l-1.78,1.79c-.17.17-.17.44,0,.62.08.08.2.12.31.12s.22-.04.31-.12l1.79-1.79c.17-.17.17-.44,0-.62-.18-.17-.45-.17-.63,0Z"/>
  <path class="st0" d="M115.45,88.71l-1.03,1.02c-.16.17-.16.45,0,.62.1.08.2.13.31.13.11,0,.23-.05.31-.13l1.03-1.02c.17-.17.17-.45,0-.62-.18-.17-.45-.17-.63,0Z"/>
  <path class="st0" d="M51.57,86.97c.11,0,.22-.07.26-.18.04-.1.03-.22-.04-.31-.57-.72-1.16-1.08-1.78-1.08-1.33,0-2.29,1.69-2.69,2.78-.63-.25-2.26-1.21-3.28-1.81-.49-.29-.95-.56-1.31-.76.66-.36,1.07-1.16,1.12-2.3.13-2.81-1.93-6.94-5.57-7.29-.61-.05-1.25-.14-1.87-.23-1.09-.15-2.2-.31-3.21-.31-1.91,0-4.45.5-4.45,4.82,0,.16.11.28.26.31,2.39.37,4.82.41,7.22.13.22,2.36.03,4.72-.57,7.02-.02.09,0,.2.06.27.07.08.16.11.26.11,1.28-.11,2.3.61,3.39,1.36,1.1.77,2.34,1.64,4.03,1.77-.22.68-.25,1.38-.13,2.09.02.09.07.17.15.21.08.05.17.06.26.02.98-.36,1.58-.19,1.9.61,0,.12.05.27.15.43,0,0,0,0,0,0,.02.02.04.04.06.06.04.04.08.06.13.07,0,0,.03,0,.04,0,0,0,.02,0,.02,0,.18,0,.32-.13.32-.31.37-1.7,2.02-1.85,3.83-1.85h.69s0,0,0,0c.16,0,.31-.14.31-.31,0-.08-.04-.16-.1-.22-.28-.47-.38-3.44.18-4.71.11-.25.24-.4.34-.41Z"/>
  <path class="st0" d="M10.65,51.38c.18,0,.63.11,1.1.21.78.19,1.77.41,2.53.41.83,0,1.18-.28,1.33-.58.59.33.55.85.44,1.61-.08.54-.16,1.09.21,1.48.06.07.16.1.25.09.09,0,.17-.06.23-.14.61-.93.69-1.86.77-2.75.08-.84.14-1.63.65-2.4,1.49.02,2.45.41,2.84,1.16,1.15,2.15-2.13,7.02-4.52,10.58-1.22,1.81-2.18,3.24-2.45,4.09,0,.01,0,.03-.01.05-.47,3.23.29,6.28,2.1,8.36,1.8,2.08,4.43,3,7.48,2.57-1.24,1.39-1.74,3.1-2.18,4.64-.63,2.16-1.12,3.86-3.38,3.86-.66,0-1.43-.14-2.36-.41-.09-.03-.19,0-.27.05-.08.06-.12.14-.12.24,0,1.03.08,1.88.16,2.62.12,1.3.23,2.33-.15,3.66-.02.1,0,.21.07.29.07.08.18.11.28.09.26-.05.5-.07.69-.07.21,0,.48.03.57.18.07.12.14.56-.68,1.85-.06.1-.06.24,0,.34.07.1.2.15.32.12.15-.04.33-.05.5-.08.03,0,.05,0,.08,0-.04.18-.08.37-.11.58-.07.31-.13.64-.21.93-.03.08,0,.18.05.26.04.05.08.08.15.11.53.37,5.09,5.5,5.75,6.6.05.09.15.15.27.15h.02c.11-.01.22-.08.26-.19.86-2.13,2.47-2.65,4.89-1.63.04.01.08.02.12.02.16.02.31-.13.31-.3,0-.07-.03-.14-.07-.19-.72-1.41-.62-1.97-.49-2.18.17-.28.64-.37,1.37-.28,0,0,.02,0,.04,0h0c.17,0,.31-.14.31-.31,0-.04,0-.08-.02-.12-.33-1.65-1.2-1.9-1.69-1.9-.71,0-1.54.54-2.09,1.37-1.4.08-2.4-.37-2.97-1.36-.81-1.41-.49-3.45.25-4.73.32-.56,1.01-1.48,2.07-1.48.88,0,1.82.67,2.72,1.95.07.1.21.15.33.12.12-.03.21-.14.23-.27.17-1.61-.01-3.39-.21-5.27-.4-4.02-.83-8.17,2.48-10.45,1.73-1.2,3.25-2.04,4.72-2.85,2.75-1.53,5.13-2.85,7.65-5.89.34.2.71.39,1.06.58,1.65.87,2.62,1.47,2.17,2.58-.04.11-.04.24.04.32.07.09.18.13.29.1.03,0,.07,0,.14,0,1.24,0,3.24.23,3.73.5-.65.89-.49,1.6-.32,1.95.29.62.94,1.03,1.64,1.03s1.47-.43,1.6-1.61c1.04.26,4.27,1.21,4.6,1.33.07.03.14.03.22.01.12-.04.21-.15.21-.27.17-2.28-.89-2.56-1.76-2.78-.34-.08-.64-.16-.85-.34,0-.17-.02-.41-.09-.61,1.39-.8,1.31-1.37,1.04-2.02-.15-.38-.26-.66.32-1.22.08-.08.11-.19.09-.29-.03-.1-.1-.19-.21-.22-1.2-.37-2.02-.28-2.47.26-.3.37-.41.91-.32,1.66-1.98-.35-5.61-3.28-6.71-5.93-.49-1.18-.42-2.13.2-2.83.56,0,.61.06,1.08.61.08.09.21.13.33.09.12-.04.21-.14.21-.27.01-.19.02-.38.03-.56.08-1.41.15-1.74.73-1.74.28,0,.66.08,1.16.25.03,0,.06,0,.1,0h0c.16,0,.31-.13.31-.3,0-.06-.03-.13-.05-.18-.47-1.07-.24-2.46.63-3.83,1.13-1.77,3-3.06,4.44-3.06.24,0,.46.04.66.11.04,0,.06.01.1.01h0c.17,0,.31-.14.31-.31,0-.02,0-.04,0-.07-.02-.94-.47-2.03-2.46-2.03-.34,0-.72.04-1.13.1.2-.77.51-1.38.83-2.02.43-.85.89-1.73,1.05-3.02.02-.09-.02-.19-.08-.26-.06-.07-.16-.1-.25-.09-2.29.27-2.61.99-2.81,1.97-.12.59-.23,1.15-1.32,1.66-.88-.7-.87-.74-.8-.99.06-.26.16-.64.08-1.37-.02-.15-.15-.27-.31-.27-1.36,0-1.41,0-2.29.48-.09.05-.15.15-.16.25-.08,1.21.44,1.76.87,2.19.5.52.87.89.19,2.43-.65,1.48-2.08,3.05-3.46,4.56-.9,1-1.76,1.94-2.41,2.86-1.56-2.09-3.01-2.26-4.6-2.26h-.73c-1.05,0-2.18-.06-3.5-.77.11-.87.49-.87.71-.87.3,0,.68.11,1.08.23.45.13.92.27,1.35.27.17,0,.33-.02.48-.07.12-.04.19-.13.21-.24.31-1.82-.93-2.14-1.94-2.39-.9-.23-1.78-.46-2.03-1.54,2.01.26,3.79.7,5.77,1.42,0,0,0,0,0,0h0s.03,0,.04,0h0s.04,0,.05-.01c1.04-.43,1.72-.72,2.39-1.67.04-.05.04-.11,0-.16-.03-.05-.08-.08-.14-.08-.27.02-.55.03-.85.03-.74,0-1.52-.05-2.26-.1-.75-.05-1.53-.11-2.29-.11-1.12,0-2,.12-2.8.37-.04-.34-.03-.75.04-1.25.4,0,.77.02,1.14.04.39.01.76.03,1.1.03.89,0,1.78-.09,2.34-.71.54-.61.69-1.58.48-3.19-.02-.14-.13-.26-.27-.27-.79-.07-1.6-.11-2.4-.11-3.81,0-7.44.89-10.17,1.66-.07.02-.12.06-.17.12-2.09,2.85-1.01,9.46.18,12.36.15.36,1.66,2.6,2.31,3.54,1.22,1.79,1.77,2.58,2.05,2.93-1.23,1.98-2.34,4.05-3.31,6.16-1.22,2.65-3.06,4.1-5.21,4.1-1.79,0-3.6-1.07-4.73-2.78-1.37-2.09-1.55-4.71-.48-7.21.48-1.1,1.36-2.51,2.3-3.99,2.31-3.66,5.19-8.23,3.84-11.43-.72-1.68-2.46-2.78-5.32-3.37-.05,0-.1,0-.14,0-1.02.28-1.74.51-2.31.7-1.43.47-1.96.64-4.16.64-.1,0-.19.04-.25.13-.05.07-.08.18-.04.28.18.53.76,1.06,1.35,1.61.58.54,1.25,1.15,1.23,1.54,0,.05,0,.11-.06.18h-.07c-.47-.11-1.06-.22-1.61-.22-.68,0-1.16.17-1.46.53-.29.34-.39.85-.29,1.5.03.15.16.26.31.26ZM40.37,49s-.03.01-.04.03c-.12-.04-.21-.08-.28-.11.13.02.26.05.33.09ZM33.51,43.17c.24-.02.47-.04.7-.05.3-.02.58-.04.86-.07-.13.62-.52.85-.88.85s-.71-.22-.87-.63c.08-.03.13-.06.19-.1Z"/>
  <path class="st0" d="M155.84,88.18c-.4-1.09-1.36-2.78-2.69-2.78-.62,0-1.22.36-1.78,1.08-.07.09-.08.21-.04.31.05.11.15.18.27.18.1,0,.23.16.34.41.56,1.27.46,4.24.18,4.71-.06.05-.09.13-.09.22,0,.17.14.31.3.31h.71c1.8,0,3.45.14,3.82,1.85,0,.17.15.31.32.31,0,0,.02,0,.03,0,0,0,.03,0,.04,0,.05-.01.1-.03.14-.07.02-.02.04-.04.05-.06h0c.1-.16.15-.31.15-.43.33-.8.93-.97,1.91-.61.08.04.18.03.25-.02.08-.04.14-.12.16-.21.12-.72.08-1.42-.14-2.09,1.7-.13,2.94-1,4.04-1.77,1.09-.76,2.1-1.47,3.39-1.36.1,0,.19-.03.26-.11.07-.08.09-.18.06-.27-.59-2.3-.78-4.66-.56-7.02,2.41.29,4.82.24,7.22-.13.16-.03.26-.15.26-.31,0-4.31-2.54-4.82-4.45-4.82-1.01,0-2.13.16-3.21.31-.62.08-1.26.17-1.86.23-3.65.35-5.71,4.47-5.57,7.29.05,1.13.46,1.94,1.12,2.3-.37.21-.82.48-1.31.76-1.02.6-2.66,1.57-3.29,1.81Z"/>
  <path class="st0" d="M57.67,147.13l2.14.95,1.44-1.95,2.72,1.21-.48,2.38,2.15.95,1.84-11.44-2.56-1.13-7.24,9.04ZM65.42,140.44l-1.06,5.04-2.01-.89,3.03-4.17h.03Z"/>
  <path class="st0" d="M85.44,144.58l-4.1-.78-2.09,11,2.22.42.89-4.65,1.19.22c.89.17,1.18.77,1.05,1.64l-.34,2.12c-.07.43-.1.86.06,1.21l2.41.45v-.09c-.36-.3-.31-.91-.11-2.06.41-2.34.34-3.21-1.13-3.7v-.03c1.3-.03,2.08-.9,2.36-2.37.36-1.88-.58-3.05-2.39-3.39ZM85.55,147.88c-.23,1.18-.92,1.53-1.97,1.33l-.93-.18.6-3.18,1.05.2c1,.19,1.45.8,1.25,1.82Z"/>
  <rect class="st0" x="101.12" y="145.97" width="2.25" height="11.18" transform="translate(-2.28 1.56) rotate(-.87)"/>
  <path class="st0" d="M122.21,150.41c.52,2.35.03,2.9-.77,3.07-.95.2-1.54-.29-2.26-3.59-.68-3.09-.67-4.27.45-4.51,1-.22,1.47.4,1.81,1.99l2.21-.48c-.35-1.59-1.08-3.85-4.24-3.16-3.3.73-3.2,3.18-2.47,6.49.73,3.32,1.67,5.59,4.97,4.86,2.89-.64,3.02-2.8,2.51-5.15l-2.21.49Z"/>
  <path class="st0" d="M136.18,138.34l2.13,11.4,2.13-1.01-.54-2.37,2.69-1.28,1.48,1.92,2.13-1.01-7.48-8.85-2.53,1.19ZM139.44,144.53l-1.18-5.01.04-.02,3.13,4.09-1.99.94Z"/>
</svg>